# xmcd
#
# Track frame offsets:
#	150
#	13815
#	32117
#	52138
#	70991
#	87219
#	106286
#	122949
#	141336
#	148391
#	170191
#	186142
#	208623
#	222915
#	241756
#
# Disc length: 3502 seconds
#
# Revision: 3
# Processed by: cddbd v1.5.2PL0 Copyright (c) Steve Scherf et al.
# Submitted via: EasyCDDAExtractor 10.2.0.1
#
DISCID=ee0dac0f
DTITLE=Various Artist - My Bloody Valentine
DYEAR=2007
DGENRE=Ballad
TTITLE0=Mary Coughlan - 1 It Nevered Entered My Mind
TTITLE1=Mary Coughlan - 2 Poison Words
TTITLE2=Mary Coughlan - 3 The Will Is Gone
TTITLE3=Mary Coughlan - 4 I Cover The Waterfront
TTITLE4=Mary Coughlan - 5 Maybe You'll Be There
TTITLE5=Mary Coughlan - 6 No Detour
TTITLE6=Mary Coughlan - 7 Runaway Teddy
TTITLE7=Mary Coughlan - 8 Those Boots Were Made For Walking
TTITLE8=Ade Payne - 9 Start Again
TTITLE9=Birds Of Wales - 10 Cinderella
TTITLE10=Daaniel O'Neill - 11 Contempletive Way
TTITLE11=The Aries Project - 12 Winterpeg
TTITLE12=L.O. Freq. - 13 For
TTITLE13=Chinchwoo - 14 Freedom
TTITLE14=Mila - 15 Goldenboy
EXTD=YEAR: 2007 ID3G: 116
EXTT0=
EXTT1=
EXTT2=
EXTT3=
EXTT4=
EXTT5=
EXTT6=
EXTT7=
EXTT8=
EXTT9=
EXTT10=
EXTT11=
EXTT12=
EXTT13=
EXTT14=
PLAYORDER=
